<mxfile host="Electron" modified="2024-03-08T17:16:42.962Z" agent="Mozilla/5.0 (X11; Linux x86_64) AppleWebKit/537.36 (KHTML, like Gecko) draw.io/23.1.5 Chrome/120.0.6099.109 Electron/28.1.0 Safari/537.36" etag="0jz6BcdG5waVc467RhSZ" version="23.1.5" type="device">
  <diagram id="STEBfEphsbRQPfoHGECy" name="Página-1">
    <mxGraphModel dx="1195" dy="698" grid="1" gridSize="10" guides="1" tooltips="1" connect="1" arrows="1" fold="1" page="1" pageScale="1" pageWidth="827" pageHeight="1169" math="0" shadow="0">
      <root>
        <mxCell id="0" />
        <mxCell id="1" parent="0" />
        <mxCell id="hQvGvdslbpYfb55w5hF3-195" value="&lt;font style=&quot;font-size: 20px;&quot;&gt;...&lt;/font&gt;" style="text;html=1;align=center;verticalAlign=middle;whiteSpace=wrap;rounded=0;fontSize=20;" parent="1" vertex="1">
          <mxGeometry x="690" y="790" width="30" height="30" as="geometry" />
        </mxCell>
        <mxCell id="4ltl4C2bIEXPds2cLsU4-88" value="«componente»&lt;br&gt;&lt;b&gt;Conversations&lt;/b&gt;" style="html=1;dropTarget=0;whiteSpace=wrap;" vertex="1" parent="1">
          <mxGeometry x="560" y="580" width="160" height="80" as="geometry" />
        </mxCell>
        <mxCell id="4ltl4C2bIEXPds2cLsU4-89" value="" style="shape=module;jettyWidth=8;jettyHeight=4;" vertex="1" parent="4ltl4C2bIEXPds2cLsU4-88">
          <mxGeometry x="1" width="20" height="20" relative="1" as="geometry">
            <mxPoint x="-27" y="7" as="offset" />
          </mxGeometry>
        </mxCell>
        <mxCell id="4ltl4C2bIEXPds2cLsU4-90" style="edgeStyle=orthogonalEdgeStyle;rounded=0;orthogonalLoop=1;jettySize=auto;html=1;entryX=0;entryY=0.5;entryDx=0;entryDy=0;" edge="1" parent="1" source="4ltl4C2bIEXPds2cLsU4-91" target="4ltl4C2bIEXPds2cLsU4-88">
          <mxGeometry relative="1" as="geometry" />
        </mxCell>
        <mxCell id="4ltl4C2bIEXPds2cLsU4-91" value="«componente»&lt;br&gt;&lt;b&gt;ConversationsBase&lt;/b&gt;" style="html=1;dropTarget=0;whiteSpace=wrap;" vertex="1" parent="1">
          <mxGeometry x="260" y="590" width="160" height="60" as="geometry" />
        </mxCell>
        <mxCell id="4ltl4C2bIEXPds2cLsU4-92" style="edgeStyle=orthogonalEdgeStyle;rounded=0;orthogonalLoop=1;jettySize=auto;html=1;entryX=0.5;entryY=0;entryDx=0;entryDy=0;" edge="1" parent="1" source="4ltl4C2bIEXPds2cLsU4-93" target="4ltl4C2bIEXPds2cLsU4-91">
          <mxGeometry relative="1" as="geometry" />
        </mxCell>
        <mxCell id="4ltl4C2bIEXPds2cLsU4-93" value="«componente»&lt;br&gt;&lt;b&gt;Domain&lt;/b&gt;" style="html=1;dropTarget=0;whiteSpace=wrap;" vertex="1" parent="1">
          <mxGeometry x="260" y="460" width="160" height="60" as="geometry" />
        </mxCell>
        <mxCell id="4ltl4C2bIEXPds2cLsU4-94" value="" style="shape=module;jettyWidth=8;jettyHeight=4;" vertex="1" parent="4ltl4C2bIEXPds2cLsU4-93">
          <mxGeometry x="1" width="20" height="20" relative="1" as="geometry">
            <mxPoint x="-27" y="7" as="offset" />
          </mxGeometry>
        </mxCell>
        <mxCell id="4ltl4C2bIEXPds2cLsU4-95" style="edgeStyle=orthogonalEdgeStyle;rounded=0;orthogonalLoop=1;jettySize=auto;html=1;exitX=0.5;exitY=1;exitDx=0;exitDy=0;entryX=0.5;entryY=0;entryDx=0;entryDy=0;" edge="1" parent="1" source="4ltl4C2bIEXPds2cLsU4-96" target="4ltl4C2bIEXPds2cLsU4-112">
          <mxGeometry relative="1" as="geometry" />
        </mxCell>
        <mxCell id="4ltl4C2bIEXPds2cLsU4-96" value="«componente»&lt;br&gt;&lt;b&gt;V1&lt;/b&gt;" style="html=1;dropTarget=0;whiteSpace=wrap;" vertex="1" parent="1">
          <mxGeometry x="360" y="710" width="160" height="60" as="geometry" />
        </mxCell>
        <mxCell id="4ltl4C2bIEXPds2cLsU4-97" value="" style="shape=module;jettyWidth=8;jettyHeight=4;" vertex="1" parent="4ltl4C2bIEXPds2cLsU4-96">
          <mxGeometry x="1" width="20" height="20" relative="1" as="geometry">
            <mxPoint x="-27" y="7" as="offset" />
          </mxGeometry>
        </mxCell>
        <mxCell id="4ltl4C2bIEXPds2cLsU4-98" style="edgeStyle=orthogonalEdgeStyle;rounded=0;orthogonalLoop=1;jettySize=auto;html=1;exitX=1;exitY=0.5;exitDx=0;exitDy=0;entryX=0;entryY=0.5;entryDx=0;entryDy=0;" edge="1" parent="1" source="4ltl4C2bIEXPds2cLsU4-99" target="4ltl4C2bIEXPds2cLsU4-96">
          <mxGeometry relative="1" as="geometry" />
        </mxCell>
        <mxCell id="4ltl4C2bIEXPds2cLsU4-99" value="«componente»&lt;br&gt;&lt;b&gt;Versions&lt;/b&gt;" style="html=1;dropTarget=0;whiteSpace=wrap;" vertex="1" parent="1">
          <mxGeometry x="160" y="710" width="160" height="60" as="geometry" />
        </mxCell>
        <mxCell id="4ltl4C2bIEXPds2cLsU4-100" value="" style="shape=module;jettyWidth=8;jettyHeight=4;" vertex="1" parent="4ltl4C2bIEXPds2cLsU4-99">
          <mxGeometry x="1" width="20" height="20" relative="1" as="geometry">
            <mxPoint x="-27" y="7" as="offset" />
          </mxGeometry>
        </mxCell>
        <mxCell id="4ltl4C2bIEXPds2cLsU4-101" value="«componente»&lt;br&gt;&lt;b&gt;Client&lt;/b&gt;" style="html=1;dropTarget=0;whiteSpace=wrap;" vertex="1" parent="1">
          <mxGeometry x="560" y="460" width="160" height="60" as="geometry" />
        </mxCell>
        <mxCell id="4ltl4C2bIEXPds2cLsU4-102" value="" style="shape=module;jettyWidth=8;jettyHeight=4;" vertex="1" parent="4ltl4C2bIEXPds2cLsU4-101">
          <mxGeometry x="1" width="20" height="20" relative="1" as="geometry">
            <mxPoint x="-27" y="7" as="offset" />
          </mxGeometry>
        </mxCell>
        <mxCell id="4ltl4C2bIEXPds2cLsU4-103" value="" style="rounded=0;orthogonalLoop=1;jettySize=auto;html=1;endArrow=halfCircle;endFill=0;endSize=6;strokeWidth=1;sketch=0;exitX=0.5;exitY=1;exitDx=0;exitDy=0;" edge="1" parent="1" source="4ltl4C2bIEXPds2cLsU4-101">
          <mxGeometry relative="1" as="geometry">
            <mxPoint x="630" y="685" as="sourcePoint" />
            <mxPoint x="640" y="550" as="targetPoint" />
          </mxGeometry>
        </mxCell>
        <mxCell id="4ltl4C2bIEXPds2cLsU4-104" value="" style="rounded=0;orthogonalLoop=1;jettySize=auto;html=1;endArrow=oval;endFill=0;sketch=0;sourcePerimeterSpacing=0;targetPerimeterSpacing=0;endSize=10;exitX=0.5;exitY=0;exitDx=0;exitDy=0;" edge="1" parent="1" source="4ltl4C2bIEXPds2cLsU4-88">
          <mxGeometry relative="1" as="geometry">
            <mxPoint x="590" y="685" as="sourcePoint" />
            <mxPoint x="640" y="550" as="targetPoint" />
          </mxGeometry>
        </mxCell>
        <mxCell id="4ltl4C2bIEXPds2cLsU4-106" value="" style="rounded=0;orthogonalLoop=1;jettySize=auto;html=1;endArrow=halfCircle;endFill=0;endSize=6;strokeWidth=1;sketch=0;exitX=0.5;exitY=1;exitDx=0;exitDy=0;" edge="1" parent="1" source="4ltl4C2bIEXPds2cLsU4-91">
          <mxGeometry relative="1" as="geometry">
            <mxPoint x="340" y="680" as="sourcePoint" />
            <mxPoint x="390" y="680" as="targetPoint" />
            <Array as="points">
              <mxPoint x="340" y="680" />
            </Array>
          </mxGeometry>
        </mxCell>
        <mxCell id="4ltl4C2bIEXPds2cLsU4-107" value="" style="rounded=0;orthogonalLoop=1;jettySize=auto;html=1;endArrow=oval;endFill=0;sketch=0;sourcePerimeterSpacing=0;targetPerimeterSpacing=0;endSize=10;exitX=0.5;exitY=0;exitDx=0;exitDy=0;" edge="1" parent="1" source="4ltl4C2bIEXPds2cLsU4-96">
          <mxGeometry relative="1" as="geometry">
            <mxPoint x="470" y="865" as="sourcePoint" />
            <mxPoint x="390" y="680" as="targetPoint" />
            <Array as="points">
              <mxPoint x="440" y="680" />
            </Array>
          </mxGeometry>
        </mxCell>
        <mxCell id="4ltl4C2bIEXPds2cLsU4-108" value="" style="ellipse;whiteSpace=wrap;html=1;align=center;aspect=fixed;fillColor=none;strokeColor=none;resizable=0;perimeter=centerPerimeter;rotatable=0;allowArrows=0;points=[];outlineConnect=1;" vertex="1" parent="1">
          <mxGeometry x="485" y="860" width="10" height="10" as="geometry" />
        </mxCell>
        <mxCell id="4ltl4C2bIEXPds2cLsU4-109" value="" style="endArrow=none;html=1;rounded=0;" edge="1" parent="1">
          <mxGeometry width="50" height="50" relative="1" as="geometry">
            <mxPoint x="240" y="810" as="sourcePoint" />
            <mxPoint x="690" y="810" as="targetPoint" />
          </mxGeometry>
        </mxCell>
        <mxCell id="4ltl4C2bIEXPds2cLsU4-110" value="«componente»&lt;br&gt;&lt;b&gt;RoleList&lt;/b&gt;" style="html=1;dropTarget=0;whiteSpace=wrap;" vertex="1" parent="1">
          <mxGeometry x="560" y="850" width="160" height="60" as="geometry" />
        </mxCell>
        <mxCell id="4ltl4C2bIEXPds2cLsU4-111" value="" style="shape=module;jettyWidth=8;jettyHeight=4;" vertex="1" parent="4ltl4C2bIEXPds2cLsU4-110">
          <mxGeometry x="1" width="20" height="20" relative="1" as="geometry">
            <mxPoint x="-27" y="7" as="offset" />
          </mxGeometry>
        </mxCell>
        <mxCell id="4ltl4C2bIEXPds2cLsU4-112" value="«componente»&lt;br&gt;&lt;b&gt;ConversationList&lt;/b&gt;" style="html=1;dropTarget=0;whiteSpace=wrap;" vertex="1" parent="1">
          <mxGeometry x="360" y="850" width="160" height="60" as="geometry" />
        </mxCell>
        <mxCell id="4ltl4C2bIEXPds2cLsU4-113" value="" style="shape=module;jettyWidth=8;jettyHeight=4;" vertex="1" parent="4ltl4C2bIEXPds2cLsU4-112">
          <mxGeometry x="1" width="20" height="20" relative="1" as="geometry">
            <mxPoint x="-27" y="7" as="offset" />
          </mxGeometry>
        </mxCell>
        <mxCell id="4ltl4C2bIEXPds2cLsU4-114" value="«componente»&lt;br&gt;&lt;b&gt;UserList&lt;/b&gt;" style="html=1;dropTarget=0;whiteSpace=wrap;" vertex="1" parent="1">
          <mxGeometry x="160" y="850" width="160" height="60" as="geometry" />
        </mxCell>
        <mxCell id="4ltl4C2bIEXPds2cLsU4-115" value="" style="shape=module;jettyWidth=8;jettyHeight=4;" vertex="1" parent="4ltl4C2bIEXPds2cLsU4-114">
          <mxGeometry x="1" width="20" height="20" relative="1" as="geometry">
            <mxPoint x="-27" y="7" as="offset" />
          </mxGeometry>
        </mxCell>
        <mxCell id="4ltl4C2bIEXPds2cLsU4-116" value="" style="endArrow=classic;html=1;rounded=0;entryX=0.5;entryY=0;entryDx=0;entryDy=0;" edge="1" parent="1" target="4ltl4C2bIEXPds2cLsU4-114">
          <mxGeometry width="50" height="50" relative="1" as="geometry">
            <mxPoint x="240" y="810" as="sourcePoint" />
            <mxPoint x="520" y="840" as="targetPoint" />
          </mxGeometry>
        </mxCell>
        <mxCell id="4ltl4C2bIEXPds2cLsU4-117" value="" style="endArrow=classic;html=1;rounded=0;entryX=0.5;entryY=0;entryDx=0;entryDy=0;" edge="1" parent="1" target="4ltl4C2bIEXPds2cLsU4-110">
          <mxGeometry width="50" height="50" relative="1" as="geometry">
            <mxPoint x="640" y="810" as="sourcePoint" />
            <mxPoint x="250" y="860" as="targetPoint" />
          </mxGeometry>
        </mxCell>
      </root>
    </mxGraphModel>
  </diagram>
</mxfile>
